#!OML:ASF F:\VICON\USERDATA\INSTALL\rory3\rory3.ASF
:FULLY-SPECIFIED
:DEGREES
413
root 0.12726 25.5028 1.99869 -169.416 2.74037 178.045
lowerback 8.21989 0.970044 -1.88345
upperback 1.80094 1.34014 2.0432
thorax -2.83284 0.747278 3.03064
lowerneck -15.1881 -2.65008 -8.15897
upperneck 39.6757 4.17453 -0.277946
head 16.973 1.93482 2.55369
rclavicle -4.96962e-015 -1.66979e-014
rhumerus -27.1601 -3.53797 -79.5061
rradius 42.7822
rwrist 16.8263
rhand -20.5317 3.88909
rfingers 7.12502
rthumb 5.82646 -26.0108
lclavicle -4.96962e-015 -1.66979e-014
lhumerus -33.3089 8.83529 80.8599
lradius 35.3302
lwrist -6.53746
lhand -9.18504 26.5029
lfingers 7.12502
lthumb 16.7683 55.7988
rfemur -0.204394 -2.14756 25.8473
rtibia -7.95139e-015
rfoot -7.4 -2.76724
rtoes 18.7422
lfemur -71.542 3.69223 -28.3738
ltibia 81.7864
lfoot -10.0362 -10.6355
ltoes -9.69582
414
root 0.127276 25.4863 1.93285 -169.286 2.78931 178.063
lowerback 8.15202 0.975416 -1.99871
upperback 1.7577 1.33242 2.01905
thorax -2.84129 0.74261 3.07223
lowerneck -15.1761 -2.62887 -8.10313
upperneck 39.5768 4.15205 -0.30812
head 16.917 1.92496 2.51953
rclavicle -9.93923e-016 -1.74931e-014
rhumerus -27.2919 -3.59376 -79.6026
rradius 42.7369
rwrist 16.8473
rhand -20.4497 3.58515
rfingers 7.12502
rthumb 5.90563 -26.3126
lclavicle -9.93923e-016 -1.74931e-014
lhumerus -33.32 9.02213 80.8207
lradius 35.0782
lwrist -6.58565
lhand -9.38971 26.3377
lfingers 7.12502
lthumb 16.5713 55.6502
rfemur -0.0878841 -2.13752 25.8502
rtibia -3.18055e-015
rfoot -7.5284 -2.66454
rtoes 18.7501
lfemur -71.1486 3.53954 -28.339
ltibia 81.8446
lfoot -11.2351 -9.62353
ltoes -10.0447
415
root 0.125732 25.4684 1.86316 -169.165 2.84733 178.186
lowerback 8.10612 0.964349 -1.98536
upperback 1.71426 1.31545 2.00672
thorax -2.85907 0.733185 3.05402
lowerneck -15.3125 -2.61011 -8.01393
upperneck 39.5801 4.16727 -0.371065
head 16.9551 1.92601 2.47984
rclavicle 5.1684e-015 3.18055e-015
rhumerus -27.4276 -3.62679 -79.7167
rradius 42.7167
rwrist 16.881
rhand -20.198 3.27252
rfingers 7.12502
rthumb 6.14863 -26.6183
lclavicle 5.1684e-015 3.18055e-015
lhumerus -33.375 9.09098 80.7845
lradius 34.9607
lwrist -6.43918
lhand -9.20865 26.4855
lfingers 7.12502
lthumb 16.7456 55.7833
rfemur 0.0682858 -2.09936 25.9616
rtibia -1.27222e-014
rfoot -7.62504 -2.55203
rtoes 18.8285
lfemur -70.8232 3.42638 -28.2452
ltibia 81.9704
lfoot -12.3306 -8.63485
ltoes -9.2778
416
root 0.124964 25.4575 1.79443 -169.072 2.88988 178.329
lowerback 8.13583 0.961479 -1.92997
upperback 1.68282 1.31361 1.98635
thorax -2.90644 0.731934 3.00111
lowerneck -15.3664 -2.55739 -7.9527
upperneck 39.4615 4.15549 -0.347584
head 16.9009 1.92319 2.46995
rclavicle 2.64384e-014 5.08889e-014
rhumerus -27.4875 -3.83718 -79.8561
rradius 42.6132
rwrist 17.0443
rhand -20.0787 3.22983
rfingers 7.12502
rthumb 6.26381 -26.6576
lclavicle 2.64384e-014 5.08889e-014
lhumerus -33.4423 9.11699 80.7588
lradius 34.8884
lwrist -6.34072
lhand -9.12082 26.5722
lfingers 7.12502
lthumb 16.8301 55.8628
rfemur 0.236913 -2.07548 26.0912
rtibia 0
rfoot -7.72025 -2.44119
rtoes 19.3305
lfemur -70.5182 3.33308 -28.1408
ltibia 82.0935
lfoot -13.6013 -8.79091
ltoes -8.44378
417
root 0.123469 25.4504 1.72642 -169.007 2.94468 178.399
lowerback 8.185 0.98504 -1.92131
upperback 1.67701 1.34179 1.92713
thorax -2.94011 0.745553 2.9309
lowerneck -15.3093 -2.51283 -8.03857
upperneck 39.2466 4.02906 -0.0769462
head 16.7585 1.88548 2.56684
rclavicle 4.37326e-015 1.43125e-014
rhumerus -27.4764 -4.14064 -79.9937
rradius 42.4503
rwrist 17.1497
rhand -20.1063 3.23483
rfingers 7.12502
rthumb 6.23723 -26.6533
lclavicle 4.37326e-015 1.43125e-014
lhumerus -33.3937 9.21314 80.7029
lradius 34.6641
lwrist -6.32341
lhand -9.18923 26.2968
lfingers 7.12502
lthumb 16.7643 55.593
rfemur 0.411284 -2.0578 26.1285
rtibia -3.18055e-015
rfoot -7.79818 -2.36963
rtoes 19.4044
lfemur -70.1996 3.24795 -28.1202
ltibia 82.18
lfoot -14.799 -9.02584
ltoes -7.76943
418
root 0.119551 25.4425 1.65876 -168.826 2.95576 178.42
lowerback 8.11068 0.952599 -1.93272
upperback 1.64728 1.2915 1.85807
thorax -2.92494 0.718463 2.87186
lowerneck -15.3181 -2.44622 -8.03536
upperneck 39.1147 4.0145 0.0374447
head 16.6821 1.88613 2.60482
rclavicle -3.37934e-015 -4.77083e-015
rhumerus -27.6695 -4.31519 -80.1315
rradius 42.4674
rwrist 17.2199
rhand -19.9486 3.16007
rfingers 7.12502
rthumb 6.38941 -26.7236
lclavicle -3.37934e-015 -4.77083e-015
lhumerus -33.3266 9.34319 80.6153
lradius 34.398
lwrist -6.31761
lhand -9.13018 26.2362
lfingers 7.12502
lthumb 16.8211 55.5276
rfemur 0.445121 -2.08085 26.1183
rtibia 1.43125e-014
rfoot -7.84219 -2.30943
rtoes 19.3071
lfemur -70.0291 3.09976 -28.1874
ltibia 82.2375
lfoot -15.6354 -8.38539
ltoes -7.26564
419
root 0.118692 25.4375 1.5893 -168.608 3.00067 178.39
lowerback 7.97437 0.94696 -2.01863
upperback 1.6155 1.26894 1.76658
thorax -2.88027 0.704607 2.82946
lowerneck -15.4829 -2.43409 -7.91411
upperneck 39.1575 4.02114 -0.0154369
head 16.7482 1.88951 2.56546
rclavicle -1.61016e-014 -2.06736e-014
rhumerus -28.0475 -4.50507 -80.226
rradius 42.6906
rwrist 17.2797
rhand -19.7157 3.01909
rfingers 7.12502
rthumb 6.61429 -26.8576
lclavicle -1.61016e-014 -2.06736e-014
lhumerus -33.2416 9.35615 80.5808
lradius 34.2617
lwrist -6.30519
lhand -9.09845 26.4604
lfingers 7.12502
lthumb 16.8517 55.7492
rfemur 0.46024 -2.0776 26.044
rtibia 3.18055e-015
rfoot -7.91842 -2.23776
rtoes 19.6925
lfemur -69.9272 3.00917 -28.3535
ltibia 82.2774
lfoot -16.262 -7.21901
ltoes -7.30079
